:SAMPLES-PER-SECOND 30
:FRAME-RANGE 1-663
:FULLY-SPECIFIED
:DEGREES
187
root  34.789 39.4396 101.723 -1.27008 -44.5384 0.340657
RightUpLeg  5.317 -8.39847 -8.41396
RightLeg  -2.48778 -20.2475 1.62192
RightFoot  1.34052 -0.980253 8.88672
RightToes  2.91037e-010 0 -3.6325e-017
Spine  1.15117 2.09271 1.95107
Spine1  2.14696 3.15497 -4.81048
HEad  24.8786 -18.7624 1.74109
LeftShoulder1  1.34898 -0.192392 -30.435
LeftArm  12.0056 2.18756 -31.8107
LeftForeArm  1.3197 -13.9737 -12.2936
LeftHand  0.406567 -1.94835 -6.28152
RightShoulder  12.2937 18.6509 48.5242
RightArm  -10.3439 13.7145 16.0419
RightForeArm  8.69508 36.2248 7.70621
RightHand  -0.989915 0.2776 -20.2321
LeftUpLeg  -1.46456 5.27253 1.301
LeftLeg  1.91496 -11.8344 -2.24321
LeftFoot  1.51579 0.243113 -2.23961
LeftToes  -4.9116e-011 5.71383e-011 -3.31847e-011
188
root  34.7215 39.4296 101.846 -1.30178 -43.4681 0.363398
RightUpLeg  5.70861 -8.5144 -8.56704
RightLeg  -2.30502 -21.1144 1.65242
RightFoot  1.11999 -0.9662 8.90291
RightToes  2.91037e-010 0 -3.6325e-017
Spine  0.841061 1.90714 1.55143
Spine1  2.16608 3.00638 -5.06737
HEad  25.5118 -19.7609 1.85696
LeftShoulder1  1.29595 -0.0203941 -30.7119
LeftArm  11.757 2.76936 -30.7333
LeftForeArm  0.763742 -14.3306 -12.0346
LeftHand  0.40196 -2.00873 -6.15221
RightShoulder  10.1614 15.2411 47.431
RightArm  1.57142 9.1023 15.1552
RightForeArm  6.92384 32.8489 6.88398
RightHand  -0.963584 0.943812 -17.7006
LeftUpLeg  -1.46642 5.11752 1.1339
LeftLeg  2.18838 -12.72 -2.25099
LeftFoot  1.29325 0.232469 -2.17105
LeftToes  -4.9116e-011 5.71383e-011 -3.31847e-011
189
root  34.6579 39.4226 101.963 -1.27837 -42.7226 0.376805
RightUpLeg  6.04634 -8.64904 -8.70456
RightLeg  -2.30602 -21.7869 1.75704
RightFoot  1.00186 -0.951233 8.84335
RightToes  2.91037e-010 0 -3.6325e-017
Spine  0.370359 1.76238 1.07986
Spine1  2.48712 2.85522 -5.0084
HEad  25.9373 -20.0607 1.46243
LeftShoulder1  1.25581 0.110111 -30.9431
LeftArm  8.7337 3.43653 -29.7194
LeftForeArm  2.59267 -13.3085 -12.5684
LeftHand  0.391114 -1.96261 -6.02385
RightShoulder  8.62999 12.9098 45.9904
RightArm  16.8417 4.65731 15.0143
RightForeArm  2.08071 27.1762 5.74628
RightHand  -0.89367 2.17188 -13.8672
LeftUpLeg  -1.47818 5.09385 1.05178
LeftLeg  2.43942 -13.4406 -2.36594
LeftFoot  1.14196 0.201586 -1.90679
LeftToes  -4.9116e-011 5.71383e-011 -3.31847e-011
190
root  34.6032 39.4179 102.072 -1.21875 -42.5085 0.455319
RightUpLeg  6.23067 -8.76704 -8.8808
RightLeg  -2.42257 -21.8214 1.85435
RightFoot  0.929738 -0.949802 8.87774
RightToes  2.91037e-010 0 -3.6325e-017
Spine  -0.217875 1.6483 0.776946
Spine1  2.9195 2.76776 -5.07762
HEad  26.174 -19.6948 1.02093
LeftShoulder1  1.24233 0.161356 -31.1078
LeftArm  8.66722 4.44721 -28.5388
LeftForeArm  1.87946 -12.6355 -13.1127
LeftHand  0.37388 -1.75198 -5.9418
RightShoulder  7.73384 11.5667 44.8573
RightArm  30.4349 1.12321 15.4284
RightForeArm  -0.421082 19.7974 7.2609
RightHand  -0.29306 3.8325 -3.94988
LeftUpLeg  -1.4306 5.07499 0.948338
LeftLeg  2.45316 -13.6451 -2.41806
LeftFoot  0.981115 0.19402 -1.85276
LeftToes  -4.9116e-011 5.71383e-011 -3.31847e-011
191
root  34.5533 39.4187 102.173 -1.08814 -42.7387 0.389416
RightUpLeg  6.44936 -8.62954 -8.81968
RightLeg  -2.85925 -21.7356 1.89831
RightFoot  1.02644 -0.965283 8.95623
RightToes  2.91037e-010 0 -3.6325e-017
Spine  -0.448764 1.56321 0.726941
Spine1  2.95321 2.70433 -5.21844
HEad  26.431 -19.1308 0.520338
LeftShoulder1  1.20223 0.277701 -31.204
LeftArm  7.25175 5.72654 -27.4417
LeftForeArm  2.83226 -11.104 -14.0258
LeftHand  0.374802 -1.5749 -6.12619
RightShoulder  7.44528 11.0903 44.585
RightArm  25.7516 -0.989796 15.0277
RightForeArm  11.8023 8.16147 15.7431
RightHand  0.527102 3.81582 6.37541
LeftUpLeg  -1.39278 5.1151 0.96018
LeftLeg  2.59385 -13.4317 -2.42382
LeftFoot  0.729397 0.18434 -1.78571
LeftToes  -4.9116e-011 5.71383e-011 -3.31847e-011
192
root  34.514 39.4143 102.251 -0.981105 -43.3014 0.37346
RightUpLeg  6.48678 -8.49205 -8.77065
RightLeg  -3.1649 -21.4285 1.84593
RightFoot  1.1292 -0.992249 9.13398
RightToes  2.91037e-010 0 -3.6325e-017
Spine  -0.241155 1.65915 0.778624
Spine1  2.57949 2.80041 -5.28051
HEad  26.6277 -18.8102 0.00350467
LeftShoulder1  1.17532 0.358819 -31.309
LeftArm  5.6754 6.90676 -26.5484
LeftForeArm  4.38722 -8.96807 -15.1216
LeftHand  0.380513 -1.43206 -6.39405
RightShoulder  7.52177 10.8251 45.9305
RightArm  28.8181 -2.92537 14.091
RightForeArm  15.1481 0.519734 18.8451
RightHand  0.916643 3.74182 11.3495
LeftUpLeg  -1.40629 5.17762 0.965386
LeftLeg  2.81318 -12.9331 -2.47261
LeftFoot  0.493507 0.161435 -1.58677
LeftToes  -4.9116e-011 5.71383e-011 -3.31847e-011
193
root  34.4817 39.4141 102.324 -0.821205 -43.832 0.364181
RightUpLeg  6.55844 -8.44055 -8.7675
RightLeg  -3.68481 -21.0227 1.93816
RightFoot  1.28446 -1.00882 9.17972
RightToes  2.91037e-010 0 -3.6325e-017
Spine  -0.466048 1.7809 1.01875
Spine1  3.06228 2.97883 -5.40924
HEad  26.2077 -18.9896 -0.152061
LeftShoulder1  1.13894 0.455016 -31.2934
LeftArm  3.73913 7.69691 -26.1959
LeftForeArm  5.77624 -6.61742 -16.0692
LeftHand  0.38874 -1.22274 -6.73544
RightShoulder  7.32515 9.74626 48.4288
RightArm  4.26531 -4.40364 10.6535
RightForeArm  50.3758 -5.14262 15.8322
RightHand  0.731474 2.87717 10.0295
LeftUpLeg  -1.50325 5.16348 0.980703
LeftLeg  3.00028 -12.4677 -2.48956
LeftFoot  0.167378 0.165625 -1.65407
LeftToes  -4.9116e-011 5.71383e-011 -3.31847e-011
194
root  34.4647 39.4122 102.389 -0.635446 -44.3232 0.400834
RightUpLeg  6.51235 -8.51588 -8.88232
RightLeg  -4.07657 -20.4442 2.0808
RightFoot  1.4071 -1.04122 9.38682
RightToes  2.91037e-010 0 -3.6325e-017
Spine  -0.286854 1.6959 0.746085
Spine1  2.92824 2.81002 -5.03571
HEad  25.6626 -18.8195 -0.214823
LeftShoulder1  1.0852 0.597649 -31.2755
LeftArm  2.74206 9.32818 -25.9893
LeftForeArm  6.3485 -5.2039 -16.5419
LeftHand  0.395575 -1.07418 -7.02977
RightShoulder  5.85764 6.90074 49.3357
RightArm  -2.94697 -7.33756 9.15047
RightForeArm  60.1059 -6.41561 14.1402
RightHand  0.317221 2.10002 4.74462
LeftUpLeg  -1.6225 5.09654 0.836271
LeftLeg  3.0712 -11.7921 -2.43045
LeftFoot  0.189709 0.11252 -1.12609
LeftToes  -4.9116e-011 5.71383e-011 -3.31847e-011
